<svg id="visual" viewBox="0 0 900 600" width="900" height="600" xmlns="http://www.w3.org/2000/svg" xmlns:xlink="http://www.w3.org/1999/xlink" version="1.1"><rect width="900" height="600" fill="#EDE8DC"></rect><g><g transform="translate(541 399)"><path d="M0 -42.9L37.2 -21.5L37.2 21.5L0 42.9L-37.2 21.5L-37.2 -21.5Z" fill="#A1D6B2"></path></g><g transform="translate(281 316)"><path d="M0 -30L26 -15L26 15L0 30L-26 15L-26 -15Z" fill="#A1D6B2"></path></g><g transform="translate(635 9)"><path d="M0 -20L17.3 -10L17.3 10L0 20L-17.3 10L-17.3 -10Z" fill="#A1D6B2"></path></g><g transform="translate(229 446)"><path d="M0 -10L8.7 -5L8.7 5L0 10L-8.7 5L-8.7 -5Z" fill="#A1D6B2"></path></g><g transform="translate(622 470)"><path d="M0 -35L30.3 -17.5L30.3 17.5L0 35L-30.3 17.5L-30.3 -17.5Z" fill="#A1D6B2"></path></g><g transform="translate(768 254)"><path d="M0 -40L34.6 -20L34.6 20L0 40L-34.6 20L-34.6 -20Z" fill="#A1D6B2"></path></g><g transform="translate(346 538)"><path d="M0 -18L15.6 -9L15.6 9L0 18L-15.6 9L-15.6 -9Z" fill="#A1D6B2"></path></g><g transform="translate(138 347)"><path d="M0 -16L13.9 -8L13.9 8L0 16L-13.9 8L-13.9 -8Z" fill="#A1D6B2"></path></g><g transform="translate(46 440)"><path d="M0 -10L8.7 -5L8.7 5L0 10L-8.7 5L-8.7 -5Z" fill="#A1D6B2"></path></g><g transform="translate(605 161)"><path d="M0 -15L13 -7.5L13 7.5L0 15L-13 7.5L-13 -7.5Z" fill="#A1D6B2"></path></g><g transform="translate(698 348)"><path d="M0 -39L33.8 -19.5L33.8 19.5L0 39L-33.8 19.5L-33.8 -19.5Z" fill="#A1D6B2"></path></g><g transform="translate(777 138)"><path d="M0 -21L18.2 -10.5L18.2 10.5L0 21L-18.2 10.5L-18.2 -10.5Z" fill="#A1D6B2"></path></g><g transform="translate(677 594)"><path d="M0 -11L9.5 -5.5L9.5 5.5L0 11L-9.5 5.5L-9.5 -5.5Z" fill="#A1D6B2"></path></g><g transform="translate(14 59)"><path d="M0 -12L10.4 -6L10.4 6L0 12L-10.4 6L-10.4 -6Z" fill="#A1D6B2"></path></g><g transform="translate(214 186)"><path d="M0 -24L20.8 -12L20.8 12L0 24L-20.8 12L-20.8 -12Z" fill="#A1D6B2"></path></g><g transform="translate(128 176)"><path d="M0 -24L20.8 -12L20.8 12L0 24L-20.8 12L-20.8 -12Z" fill="#A1D6B2"></path></g><g transform="translate(7 285)"><path d="M0 -15L13 -7.5L13 7.5L0 15L-13 7.5L-13 -7.5Z" fill="#A1D6B2"></path></g></g></svg>